<svg id="Слой_1" data-name="Слой 1" xmlns="http://www.w3.org/2000/svg" xmlns:xlink="http://www.w3.org/1999/xlink" viewBox="0 0 630.34 545.89"><defs><style>.cls-1{fill:url(#Безымянный_градиент_18);}.cls-2{stroke:#000;stroke-miterlimit:10;stroke-width:3px;fill:url(#Безымянный_градиент_75);}</style><linearGradient id="Безымянный_градиент_18" x1="315.17" y1="539.39" x2="315.17" y2="6.5" gradientUnits="userSpaceOnUse"><stop offset="0" stop-color="#ffbd00"/><stop offset="1" stop-color="#fcee21"/></linearGradient><linearGradient id="Безымянный_градиент_75" x1="809.11" y1="501.51" x2="1110.89" y2="501.51" gradientUnits="userSpaceOnUse"><stop offset="0" stop-color="#ffbdff"/><stop offset="1" stop-color="#ff41ff"/></linearGradient></defs><polygon class="cls-1" points="161.34 539.39 7.51 272.94 161.34 6.5 469 6.5 622.83 272.94 469 539.39 161.34 539.39"/><path d="M1100.84,241.57l150.07,259.94-150.07,260H800.68l-150.08-260L800.68,241.57h300.16m7.5-13H793.17L635.59,501.51l157.58,273h315.17l157.59-273L1108.34,228.57Z" transform="translate(-635.59 -228.57)"/><path class="cls-2" d="M809.11,331.75V671.28s179.18-80.16,301.78-169.77C988.29,411.91,809.11,331.75,809.11,331.75Z" transform="translate(-635.59 -228.57)"/></svg>